<?xml version="1.0" encoding="utf-8"?>
<!-- Generator: Adobe Illustrator 18.0.0, SVG Export Plug-In . SVG Version: 6.00 Build 0)  -->
<!DOCTYPE svg PUBLIC "-//W3C//DTD SVG 1.1//EN" "http://www.w3.org/Graphics/SVG/1.1/DTD/svg11.dtd">
<svg version="1.1" id="Layer_1" xmlns="http://www.w3.org/2000/svg" xmlns:xlink="http://www.w3.org/1999/xlink" x="0px" y="0px"
	 viewBox="0 0 330.7 115.6" enable-background="new 0 0 330.7 115.6" xml:space="preserve">
<g>
	<path d="M38,4.5c6,0,10.4,0.7,13.3,2.2c2.8,1.5,4.2,3.8,4.2,6.8c0,2-0.5,3.8-1.4,5.4c-0.9,1.5-2.1,2.8-3.6,3.9
		c-1.5,1.1-3.2,2-5.1,2.7c-1.9,0.7-3.9,1.3-6,1.7L39.3,28c1.6,0.2,3.3,0.5,4.9,1c1.7,0.5,3.1,1.2,4.3,2c1.3,0.9,2.3,1.9,3.1,3.2
		c0.8,1.2,1.1,2.8,1.1,4.5c0,5.1-2.2,9-6.5,11.7c-4.3,2.7-10.6,4-19,4H0l0.6-2.6c0.6,0,1.5-0.1,2.6-0.3c1.2-0.2,2-0.3,2.6-0.5
		c0.9-0.3,1.6-0.8,2.1-1.4c0.5-0.6,0.8-1.3,1-2.1L17,12.7c0.1-0.5,0.2-0.9,0.2-1.2c0-0.3,0.1-0.6,0.1-0.7c0-1-0.5-1.8-1.5-2.3
		c-1-0.6-2.6-1-4.9-1.3l0.6-2.6H38z M39,37.9c0-2.7-0.9-4.8-2.6-6.2c-1.7-1.4-4.3-2.2-7.7-2.2c-0.5,0-1.1,0-1.7,0.1
		c-0.7,0-1.2,0.1-1.4,0.1l-4.3,18.6c0,0.9,0.7,1.6,1.9,2.2c1.3,0.6,2.7,0.9,4.2,0.9c3.1,0,5.8-1.3,8.1-3.8
		C37.8,45.1,39,41.9,39,37.9z M41.7,14.3c0-2.3-0.7-4-2.2-5.1c-1.5-1.1-3.4-1.6-5.8-1.6c-0.5,0-1,0-1.7,0.1c-0.6,0-1.1,0.1-1.5,0.1
		l-4.3,18.8h2.4c4,0,7.2-1.1,9.6-3.4C40.5,20.9,41.7,17.9,41.7,14.3z"/>
	<path d="M95.5,26.1c0,1.1-0.2,2.1-0.5,3.1c-0.3,1-0.8,1.8-1.4,2.5c-0.7,0.8-1.4,1.4-2.1,1.8c-0.8,0.4-1.8,0.6-3.2,0.6
		c-1.8,0-3.1-0.4-4.1-1.3c-1-0.9-1.5-1.8-1.5-2.9c0-1,0.1-1.9,0.4-2.6c0.3-0.7,0.8-1.8,1.4-3.3c-1.6,0.7-2.9,1.5-4.1,2.4
		c-1.1,0.9-2.2,2-3.3,3.3l-5.6,24.9H60l4.9-21.6c0.1-0.7,0.3-1.5,0.5-2.6s0.3-1.9,0.3-2.6c0-1.4-0.3-2.3-0.8-2.8s-1.5-0.7-3-0.7
		c-0.8,0-1.5,0.1-2.3,0.4c-0.8,0.2-1.5,0.5-2,0.7l0.8-3.2c1.9-0.8,3.7-1.4,5.4-2c1.7-0.6,3.4-0.8,4.9-0.8c2.8,0,4.8,0.5,6.2,1.6
		c1.4,1.1,2.3,2.6,2.7,4.6h0.2c2.3-2.5,4.3-4.2,5.9-5.2c1.6-1,3.4-1.5,5.2-1.5c2,0,3.6,0.6,4.7,1.9C94.9,21.9,95.5,23.7,95.5,26.1z"
		/>
	<path d="M120.1,49.4l-0.8,3.2c-2.3,0.9-4.2,1.6-5.6,2.1c-1.4,0.5-3,0.7-4.8,0.7c-2.8,0-5-0.7-6.6-2.1c-1.6-1.4-2.3-3.1-2.3-5.2
		c0-0.8,0.1-1.7,0.2-2.5c0.1-0.9,0.3-1.8,0.6-2.9l2.9-10.3c0.3-1,0.5-1.9,0.7-2.8s0.3-1.7,0.3-2.4c0-1.3-0.3-2.2-0.8-2.7
		c-0.5-0.5-1.6-0.8-3.1-0.8c-0.8,0-1.5,0.1-2.3,0.4c-0.8,0.2-1.5,0.5-2,0.7l0.8-3.2c1.9-0.8,3.7-1.4,5.5-2c1.7-0.6,3.4-0.8,4.9-0.8
		c2.8,0,4.9,0.7,6.5,2c1.5,1.3,2.3,3.1,2.3,5.3c0,0.4-0.1,1.2-0.2,2.4s-0.3,2.2-0.6,3.1l-2.9,10.2c-0.2,0.8-0.4,1.8-0.6,2.8
		s-0.3,1.9-0.3,2.4c0,1.4,0.3,2.3,0.9,2.8c0.6,0.5,1.7,0.7,3.2,0.7c0.7,0,1.5-0.1,2.4-0.4C119.1,49.8,119.7,49.6,120.1,49.4z
		 M120.8,6.5c0,1.8-0.7,3.3-2,4.6c-1.3,1.3-3,1.9-4.9,1.9s-3.5-0.6-4.9-1.9c-1.4-1.3-2-2.8-2-4.6c0-1.8,0.7-3.3,2-4.6
		c1.4-1.3,3-1.9,4.9-1.9s3.5,0.6,4.9,1.9C120.2,3.2,120.8,4.7,120.8,6.5z"/>
	<path d="M148.1,50h-0.3c-0.8,0.7-1.6,1.3-2.3,1.9c-0.7,0.6-1.7,1.2-2.8,1.7c-1,0.5-2,0.9-3.1,1.3c-1.1,0.3-2.3,0.5-3.6,0.5
		c-4.1,0-7.2-1.2-9.2-3.6c-2.1-2.4-3.1-5.7-3.1-9.9c0-3.2,0.6-6.2,1.7-9c1.1-2.8,2.7-5.3,4.6-7.4c1.9-2.1,4.2-3.8,6.8-5
		c2.6-1.2,5.3-1.8,8.2-1.8c2.1,0,4,0.2,5.5,0.7s2.9,1.2,3.9,2l10.8-2.2l0.5,0.6l-5.2,21.6c-0.2,0.7-0.4,1.6-0.6,2.7
		s-0.3,1.9-0.3,2.5c0,1.3,0.3,2.3,0.9,2.8c0.6,0.5,1.7,0.8,3.2,0.8c0.7,0,1.4-0.1,2.4-0.4c0.9-0.3,1.6-0.5,2-0.6l-0.8,3.2
		c-2.3,0.9-4.2,1.6-5.6,2.1s-3,0.7-4.8,0.7c-2.4,0-4.3-0.5-5.8-1.4C149.7,52.8,148.7,51.5,148.1,50z M152.3,27.7
		c0-0.5-0.1-1.1-0.2-1.8s-0.4-1.3-0.7-1.8c-0.4-0.6-1-1.1-1.7-1.4c-0.7-0.3-1.5-0.5-2.5-0.5c-1.5,0-3,0.6-4.3,1.7
		c-1.3,1.1-2.5,2.6-3.5,4.4c-1,1.8-1.8,4-2.3,6.4c-0.6,2.4-0.8,4.9-0.8,7.4c0,1.1,0.1,2.2,0.3,3.2c0.2,1,0.5,1.8,0.9,2.5
		c0.4,0.7,1,1.3,1.7,1.7c0.7,0.4,1.6,0.6,2.7,0.6c1.1,0,2.2-0.3,3.2-1c1-0.6,2-1.4,2.8-2.4L152.3,27.7z"/>
	<path d="M217.5,49l-0.8,3.2c-2.3,0.9-4.2,1.6-5.6,2.1c-1.4,0.5-3,0.7-4.8,0.7c-2.8,0-5-0.7-6.5-2.1c-1.5-1.4-2.3-3.1-2.3-5.2
		c0-0.6,0-1.3,0.1-2.2c0.1-0.9,0.3-2,0.6-3.3l2.5-9.4c0.3-1,0.5-1.9,0.6-2.7c0.1-0.8,0.2-1.5,0.2-2c0-1.1-0.3-2-0.8-2.6
		c-0.5-0.6-1.5-0.9-2.7-0.9c-0.8,0-1.9,0.3-3.4,0.9c-1.5,0.6-3.1,1.8-4.9,3.5l-5.8,25.4h-11.6l5-21.6c0.1-0.7,0.3-1.5,0.5-2.6
		s0.3-1.9,0.3-2.6c0-1.3-0.3-2.3-0.8-2.8c-0.6-0.5-1.6-0.8-3-0.8c-0.8,0-1.5,0.1-2.3,0.4c-0.8,0.2-1.5,0.5-2,0.7l0.8-3.2
		c1.9-0.8,3.7-1.4,5.5-2c1.7-0.6,3.4-0.8,4.9-0.8c2.8,0,4.8,0.5,6.2,1.6s2.3,2.6,2.7,4.6h0.2c2.3-2.1,4.7-3.7,7.1-4.9
		s5.1-1.7,7.8-1.7c2.6,0,4.6,0.7,6.1,2.1c1.5,1.4,2.2,3.2,2.2,5.2c0,0.5,0,1.3-0.1,2.3c-0.1,1-0.3,2-0.6,3.1l-2.7,9.9
		c-0.2,0.8-0.4,1.8-0.6,2.8c-0.2,1.1-0.3,1.9-0.3,2.4c0,1.4,0.3,2.3,0.9,2.8s1.6,0.7,3.1,0.7c0.7,0,1.5-0.1,2.4-0.4
		S217.1,49.2,217.5,49z"/>
	<path d="M38,64.5c6,0,10.4,0.7,13.3,2.2c2.8,1.5,4.2,3.8,4.2,6.8c0,2-0.5,3.8-1.4,5.4c-0.9,1.5-2.1,2.8-3.6,3.9
		c-1.5,1.1-3.2,2-5.1,2.7c-1.9,0.7-3.9,1.3-6,1.7L39.3,88c1.6,0.2,3.3,0.5,4.9,1c1.7,0.5,3.1,1.2,4.3,2c1.3,0.9,2.3,1.9,3.1,3.2
		c0.8,1.2,1.1,2.8,1.1,4.5c0,5.1-2.2,9-6.5,11.7c-4.3,2.7-10.6,4-19,4H0l0.6-2.6c0.6,0,1.5-0.1,2.6-0.3s2-0.3,2.6-0.5
		c0.9-0.3,1.6-0.8,2.1-1.4c0.5-0.6,0.8-1.3,1-2.1L17,72.7c0.1-0.5,0.2-0.9,0.2-1.2c0-0.3,0.1-0.6,0.1-0.7c0-1-0.5-1.8-1.5-2.3
		c-1-0.6-2.6-1-4.9-1.3l0.6-2.6H38z M39,97.9c0-2.7-0.9-4.8-2.6-6.2c-1.7-1.4-4.3-2.2-7.7-2.2c-0.5,0-1.1,0-1.7,0.1
		c-0.7,0-1.2,0.1-1.4,0.1l-4.3,18.6c0,0.9,0.7,1.6,1.9,2.2c1.3,0.6,2.7,0.9,4.2,0.9c3.1,0,5.8-1.3,8.1-3.8
		C37.8,105.1,39,101.9,39,97.9z M41.7,74.3c0-2.3-0.7-4-2.2-5.1c-1.5-1.1-3.4-1.6-5.8-1.6c-0.5,0-1,0-1.7,0.1
		c-0.6,0-1.1,0.1-1.5,0.1l-4.3,18.8h2.4c4,0,7.2-1.1,9.6-3.4C40.5,80.9,41.7,77.9,41.7,74.3z"/>
	<path d="M95.5,86.1c0,1.1-0.2,2.1-0.5,3.1c-0.3,1-0.8,1.8-1.4,2.5c-0.7,0.8-1.4,1.4-2.1,1.8c-0.8,0.4-1.8,0.6-3.2,0.6
		c-1.8,0-3.1-0.4-4.1-1.3c-1-0.9-1.5-1.8-1.5-2.9c0-1,0.1-1.9,0.4-2.6c0.3-0.7,0.8-1.8,1.4-3.3c-1.6,0.7-2.9,1.5-4.1,2.4
		c-1.1,0.9-2.2,2-3.3,3.3l-5.6,24.9H60l4.9-21.6c0.1-0.7,0.3-1.5,0.5-2.6s0.3-1.9,0.3-2.6c0-1.4-0.3-2.3-0.8-2.8s-1.5-0.7-3-0.7
		c-0.8,0-1.5,0.1-2.3,0.4c-0.8,0.2-1.5,0.5-2,0.7l0.8-3.2c1.9-0.8,3.7-1.4,5.4-2c1.7-0.6,3.4-0.8,4.9-0.8c2.8,0,4.8,0.5,6.2,1.6
		c1.4,1.1,2.3,2.6,2.7,4.6h0.2c2.3-2.5,4.3-4.2,5.9-5.2c1.6-1,3.4-1.5,5.2-1.5c2,0,3.6,0.6,4.7,1.9C94.9,81.9,95.5,83.7,95.5,86.1z"
		/>
	<path d="M114.2,115.6c-2.8,0-5.3-0.4-7.4-1.1c-2.1-0.8-3.9-1.8-5.3-3.2c-1.4-1.4-2.4-2.9-3.1-4.7c-0.7-1.8-1-3.8-1-6
		c0-2.8,0.5-5.4,1.5-8.1c1-2.6,2.6-4.9,4.6-7c1.9-2,4.4-3.6,7.3-4.9c3-1.2,6.2-1.9,9.8-1.9c4.2,0,7.4,0.7,9.6,2
		c2.2,1.3,3.3,3.3,3.3,6c0,2.6-0.9,4.8-2.8,6.6s-4.5,3.2-7.7,4.1c-2.6,0.8-4.8,1.3-6.6,1.7c-1.8,0.3-4,0.6-6.7,0.9
		c0,1,0.2,2.2,0.4,3.5c0.2,1.3,0.6,2.4,1.1,3.3c0.6,1.1,1.4,1.9,2.4,2.5c1,0.6,2.3,0.9,3.9,0.9c2.8,0,5.1-0.5,7-1.6s3.8-2.8,5.5-5.1
		l2.6,2.1c-2.1,3-4.8,5.4-8.1,7.2C121.3,114.7,117.9,115.6,114.2,115.6z M122.2,87.7c0-2-0.4-3.5-1.1-4.6c-0.7-1.1-1.7-1.6-3-1.6
		c-1.8,0-3.5,1.5-5.1,4.4c-1.6,2.9-2.6,6.7-3.1,11.2c1.4-0.2,2.8-0.4,4.1-0.6c1.4-0.3,2.4-0.6,3.2-0.9c1.8-0.8,3-1.8,3.8-3
		S122.2,89.8,122.2,87.7z"/>
	<path d="M183.8,109l-0.8,3.2c-2.3,0.9-4.2,1.6-5.6,2.1c-1.4,0.5-3,0.7-4.8,0.7c-2.8,0-5-0.7-6.5-2.1c-1.5-1.4-2.3-3.1-2.3-5.2
		c0-0.6,0-1.3,0.1-2.2c0.1-0.9,0.3-2,0.6-3.3l2.5-9.4c0.3-1,0.5-1.9,0.6-2.7c0.1-0.8,0.2-1.5,0.2-2c0-1.1-0.3-2-0.8-2.6
		c-0.5-0.6-1.5-0.9-2.7-0.9c-0.8,0-1.9,0.3-3.4,0.9c-1.5,0.6-3.1,1.8-4.9,3.5l-5.8,25.4h-11.6l5-21.6c0.1-0.7,0.3-1.5,0.5-2.6
		s0.3-1.9,0.3-2.6c0-1.3-0.3-2.3-0.8-2.8c-0.6-0.5-1.6-0.8-3-0.8c-0.8,0-1.5,0.1-2.3,0.4c-0.8,0.2-1.5,0.5-2,0.7l0.8-3.2
		c1.9-0.8,3.7-1.4,5.5-2c1.7-0.6,3.4-0.8,4.9-0.8c2.8,0,4.8,0.5,6.2,1.6s2.3,2.6,2.7,4.6h0.2c2.3-2.1,4.7-3.7,7.1-4.9
		s5.1-1.7,7.8-1.7c2.6,0,4.6,0.7,6.1,2.1c1.5,1.4,2.2,3.2,2.2,5.2c0,0.5,0,1.3-0.1,2.3c-0.1,1-0.3,2-0.6,3.1l-2.7,9.9
		c-0.2,0.8-0.4,1.8-0.6,2.8c-0.2,1.1-0.3,1.9-0.3,2.4c0,1.4,0.3,2.3,0.9,2.8s1.6,0.7,3.1,0.7c0.7,0,1.5-0.1,2.4-0.4
		S183.4,109.2,183.8,109z"/>
	<path d="M233.5,109l-0.8,3.2c-2.3,0.9-4.2,1.6-5.6,2.1c-1.4,0.5-3,0.7-4.8,0.7c-2.8,0-5-0.7-6.5-2.1c-1.5-1.4-2.3-3.1-2.3-5.2
		c0-0.6,0-1.3,0.1-2.2c0.1-0.9,0.3-2,0.6-3.3l2.5-9.4c0.3-1,0.5-1.9,0.6-2.7c0.1-0.8,0.2-1.5,0.2-2c0-1.1-0.3-2-0.8-2.6
		c-0.5-0.6-1.5-0.9-2.7-0.9c-0.8,0-1.9,0.3-3.4,0.9c-1.5,0.6-3.1,1.8-4.9,3.5l-5.8,25.4h-11.6l5-21.6c0.1-0.7,0.3-1.5,0.5-2.6
		s0.3-1.9,0.3-2.6c0-1.3-0.3-2.3-0.8-2.8c-0.6-0.5-1.6-0.8-3-0.8c-0.8,0-1.5,0.1-2.3,0.4c-0.8,0.2-1.5,0.5-2,0.7l0.8-3.2
		c1.9-0.8,3.7-1.4,5.5-2c1.7-0.6,3.4-0.8,4.9-0.8c2.8,0,4.8,0.5,6.2,1.6s2.3,2.6,2.7,4.6h0.2c2.3-2.1,4.7-3.7,7.1-4.9
		s5.1-1.7,7.8-1.7c2.6,0,4.6,0.7,6.1,2.1c1.5,1.4,2.2,3.2,2.2,5.2c0,0.5,0,1.3-0.1,2.3c-0.1,1-0.3,2-0.6,3.1l-2.7,9.9
		c-0.2,0.8-0.4,1.8-0.6,2.8c-0.2,1.1-0.3,1.9-0.3,2.4c0,1.4,0.3,2.3,0.9,2.8s1.6,0.7,3.1,0.7c0.7,0,1.5-0.1,2.4-0.4
		S233.1,109.2,233.5,109z"/>
	<path d="M261.2,110h-0.3c-0.8,0.7-1.6,1.3-2.3,1.9c-0.7,0.6-1.7,1.2-2.8,1.7c-1,0.5-2,0.9-3.1,1.3c-1.1,0.3-2.3,0.5-3.6,0.5
		c-4.1,0-7.2-1.2-9.2-3.6c-2.1-2.4-3.1-5.7-3.1-9.9c0-3.2,0.6-6.2,1.7-9c1.1-2.8,2.7-5.3,4.6-7.4c1.9-2.1,4.2-3.8,6.8-5
		c2.6-1.2,5.3-1.8,8.2-1.8c2.1,0,4,0.2,5.5,0.7s2.9,1.2,3.9,2l10.8-2.2l0.5,0.6l-5.2,21.6c-0.2,0.7-0.4,1.6-0.6,2.7
		s-0.3,1.9-0.3,2.5c0,1.3,0.3,2.3,0.9,2.8c0.6,0.5,1.7,0.8,3.2,0.8c0.7,0,1.4-0.1,2.4-0.4s1.6-0.5,2-0.6l-0.8,3.2
		c-2.3,0.9-4.2,1.6-5.6,2.1s-3,0.7-4.8,0.7c-2.4,0-4.3-0.5-5.8-1.4C262.8,112.8,261.8,111.5,261.2,110z M265.4,87.7
		c0-0.5-0.1-1.1-0.2-1.8s-0.4-1.3-0.7-1.8c-0.4-0.6-1-1.1-1.7-1.4c-0.7-0.3-1.5-0.5-2.5-0.5c-1.5,0-3,0.6-4.3,1.7
		c-1.3,1.1-2.5,2.6-3.5,4.4c-1,1.8-1.8,4-2.3,6.4c-0.6,2.4-0.8,4.9-0.8,7.4c0,1.1,0.1,2.2,0.3,3.2c0.2,1,0.5,1.8,0.9,2.5
		c0.4,0.7,1,1.3,1.7,1.7s1.6,0.6,2.7,0.6c1.1,0,2.2-0.3,3.2-1s2-1.4,2.8-2.4L265.4,87.7z"/>
	<path d="M330.7,109l-0.8,3.2c-2.3,0.9-4.2,1.6-5.6,2.1c-1.4,0.5-3,0.7-4.8,0.7c-2.8,0-5-0.7-6.5-2.1c-1.5-1.4-2.3-3.1-2.3-5.2
		c0-0.6,0-1.3,0.1-2.2c0.1-0.9,0.3-2,0.6-3.3l2.6-9.4c0.3-1,0.5-1.9,0.6-2.7s0.2-1.5,0.2-2c0-1.1-0.3-2-0.8-2.6
		c-0.5-0.6-1.5-0.9-2.7-0.9c-0.8,0-1.9,0.3-3.4,0.9c-1.5,0.6-3.1,1.8-4.9,3.5l-5.8,25.4h-11.6l5-21.6c0.1-0.7,0.3-1.5,0.5-2.6
		s0.3-1.9,0.3-2.6c0-1.3-0.3-2.3-0.8-2.8c-0.6-0.5-1.6-0.8-3-0.8c-0.8,0-1.5,0.1-2.3,0.4c-0.8,0.2-1.5,0.5-2,0.7l0.8-3.2
		c1.9-0.8,3.7-1.4,5.5-2c1.7-0.6,3.4-0.8,4.9-0.8c2.8,0,4.8,0.5,6.2,1.6c1.4,1.1,2.3,2.6,2.7,4.6h0.2c2.3-2.1,4.7-3.7,7.1-4.9
		s5.1-1.7,7.8-1.7c2.6,0,4.6,0.7,6.1,2.1c1.5,1.4,2.2,3.2,2.2,5.2c0,0.5,0,1.3-0.1,2.3c-0.1,1-0.3,2-0.6,3.1l-2.7,9.9
		c-0.2,0.8-0.4,1.8-0.6,2.8c-0.2,1.1-0.3,1.9-0.3,2.4c0,1.4,0.3,2.3,0.9,2.8s1.6,0.7,3.1,0.7c0.7,0,1.5-0.1,2.4-0.4
		C329.6,109.4,330.3,109.2,330.7,109z"/>
</g>
</svg>
