<?xml version="1.0" encoding="utf-8"?>
<!-- Generator: Adobe Illustrator 18.0.0, SVG Export Plug-In . SVG Version: 6.00 Build 0)  -->
<!DOCTYPE svg PUBLIC "-//W3C//DTD SVG 1.1//EN" "http://www.w3.org/Graphics/SVG/1.1/DTD/svg11.dtd">
<svg version="1.1" id="Layer_1" xmlns="http://www.w3.org/2000/svg" xmlns:xlink="http://www.w3.org/1999/xlink" x="0px" y="0px"
	 viewBox="0 0 72 9.1" enable-background="new 0 0 72 9.1" xml:space="preserve">
<g>
	<path fill="#22313F" d="M0,9V0.3h3.2c0.6,0,1.1,0.1,1.5,0.2c0.4,0.1,0.8,0.3,1,0.5s0.5,0.5,0.6,0.7s0.2,0.6,0.2,1
		c0,0.2,0,0.4-0.1,0.6C6.4,3.4,6.3,3.6,6.2,3.7C6.1,3.9,5.9,4,5.8,4.2C5.6,4.3,5.3,4.4,5.1,4.5c0.6,0.1,1,0.4,1.3,0.7
		c0.3,0.3,0.4,0.7,0.4,1.2c0,0.4-0.1,0.7-0.2,1C6.4,7.7,6.2,8,5.9,8.3c-0.3,0.2-0.6,0.4-1,0.6C4.5,9,4,9,3.5,9H0z M2,4h1.1
		c0.2,0,0.4,0,0.6,0c0.2,0,0.3-0.1,0.5-0.2s0.2-0.2,0.3-0.3c0.1-0.1,0.1-0.3,0.1-0.5c0-0.2,0-0.4-0.1-0.5C4.4,2.2,4.3,2.1,4.2,2
		C4.1,1.9,4,1.9,3.8,1.8S3.4,1.8,3.2,1.8H2V4z M2,5.3v2.2h1.4c0.3,0,0.5,0,0.7-0.1c0.2-0.1,0.3-0.2,0.4-0.3C4.6,7,4.7,6.9,4.7,6.8
		c0-0.1,0.1-0.3,0.1-0.4c0-0.2,0-0.3-0.1-0.4S4.6,5.7,4.5,5.6C4.4,5.5,4.2,5.4,4.1,5.4c-0.2,0-0.4-0.1-0.6-0.1H2z"/>
	<path fill="#22313F" d="M7.9,9V2.8H9c0.1,0,0.2,0,0.2,0c0.1,0,0.1,0,0.2,0.1c0,0,0.1,0.1,0.1,0.1c0,0.1,0,0.1,0.1,0.2l0.1,0.6
		c0.2-0.4,0.5-0.6,0.8-0.8s0.6-0.3,0.9-0.3c0.3,0,0.5,0.1,0.7,0.2l-0.2,1.4c0,0.1,0,0.1-0.1,0.2c0,0-0.1,0.1-0.2,0.1
		c-0.1,0-0.1,0-0.2,0c-0.1,0-0.2,0-0.3,0c-0.5,0-0.9,0.3-1.2,0.8V9H7.9z"/>
	<path fill="#22313F" d="M15,1.1c0,0.1,0,0.3-0.1,0.4c-0.1,0.1-0.1,0.2-0.2,0.3S14.4,2,14.3,2.1c-0.1,0.1-0.3,0.1-0.4,0.1
		c-0.2,0-0.3,0-0.4-0.1C13.3,2,13.1,1.9,13,1.9s-0.2-0.2-0.2-0.3c-0.1-0.1-0.1-0.3-0.1-0.4c0-0.2,0-0.3,0.1-0.4
		c0.1-0.1,0.1-0.2,0.2-0.3c0.1-0.1,0.2-0.2,0.4-0.2C13.5,0,13.7,0,13.8,0c0.2,0,0.3,0,0.4,0.1c0.1,0.1,0.3,0.1,0.4,0.2
		c0.1,0.1,0.2,0.2,0.2,0.3S15,0.9,15,1.1z M14.7,2.8V9h-1.9V2.8H14.7z"/>
	<path fill="#22313F" d="M20.5,9c-0.2,0-0.3,0-0.4-0.1c-0.1,0-0.2-0.1-0.2-0.3l-0.1-0.3c-0.2,0.1-0.3,0.2-0.4,0.3
		c-0.1,0.1-0.3,0.2-0.4,0.3C18.7,9,18.6,9,18.4,9.1c-0.2,0-0.4,0.1-0.6,0.1c-0.3,0-0.5,0-0.8-0.1c-0.2-0.1-0.4-0.2-0.6-0.3
		c-0.2-0.1-0.3-0.3-0.4-0.5c-0.1-0.2-0.1-0.5-0.1-0.7c0-0.2,0.1-0.4,0.2-0.7c0.1-0.2,0.3-0.4,0.6-0.6c0.3-0.2,0.6-0.4,1.1-0.5
		c0.5-0.1,1.1-0.2,1.8-0.2V5.1c0-0.4-0.1-0.6-0.2-0.8S19,4.1,18.7,4.1c-0.2,0-0.4,0-0.5,0.1c-0.1,0-0.3,0.1-0.4,0.2
		c-0.1,0.1-0.2,0.1-0.3,0.2s-0.2,0.1-0.4,0.1c-0.1,0-0.2,0-0.3-0.1c-0.1-0.1-0.2-0.1-0.2-0.2l-0.3-0.6c0.4-0.3,0.8-0.6,1.3-0.7
		s0.9-0.2,1.5-0.2c0.4,0,0.7,0.1,1,0.2c0.3,0.1,0.6,0.3,0.8,0.5c0.2,0.2,0.4,0.5,0.5,0.8c0.1,0.3,0.2,0.6,0.2,1V9H20.5z M18.4,7.9
		c0.2,0,0.5,0,0.6-0.1c0.2-0.1,0.4-0.2,0.5-0.4V6.5c-0.4,0-0.7,0-0.9,0.1c-0.2,0-0.4,0.1-0.6,0.2S17.9,6.9,17.8,7
		c-0.1,0.1-0.1,0.2-0.1,0.3c0,0.2,0.1,0.4,0.2,0.5C18,7.8,18.2,7.9,18.4,7.9z"/>
	<path fill="#22313F" d="M22.7,9V2.8h1.2c0.1,0,0.2,0,0.3,0.1c0.1,0.1,0.1,0.1,0.2,0.2l0.1,0.4c0.1-0.1,0.2-0.2,0.4-0.3
		c0.1-0.1,0.3-0.2,0.4-0.2c0.1-0.1,0.3-0.1,0.5-0.2c0.2,0,0.4-0.1,0.6-0.1c0.3,0,0.6,0.1,0.9,0.2c0.3,0.1,0.5,0.3,0.7,0.5
		s0.3,0.5,0.4,0.8c0.1,0.3,0.1,0.6,0.1,0.9v4h-1.9v-4c0-0.3-0.1-0.5-0.2-0.7s-0.3-0.3-0.6-0.3c-0.2,0-0.4,0-0.6,0.1
		c-0.2,0.1-0.4,0.2-0.5,0.4V9H22.7z"/>
	<path fill="#22313F" d="M30.2,9V0.5h2.4c0.5,0,0.9,0,1.3,0.1c0.4,0.1,0.6,0.2,0.9,0.4s0.4,0.4,0.5,0.7c0.1,0.3,0.2,0.6,0.2,0.9
		c0,0.2,0,0.4-0.1,0.6c-0.1,0.2-0.2,0.4-0.3,0.6s-0.3,0.3-0.5,0.5c-0.2,0.1-0.5,0.2-0.7,0.3c0.7,0.1,1.2,0.3,1.5,0.7
		c0.4,0.3,0.5,0.8,0.5,1.4c0,0.4-0.1,0.7-0.2,1s-0.3,0.5-0.6,0.7c-0.2,0.2-0.5,0.4-0.9,0.5C33.8,9,33.4,9,33,9H30.2z M30.8,4.5h1.8
		c0.4,0,0.7,0,1-0.1C34,4.3,34.2,4.1,34.4,4c0.2-0.2,0.3-0.4,0.4-0.6s0.1-0.4,0.1-0.6c0-0.6-0.2-1-0.5-1.3C34,1.2,33.4,1,32.7,1
		h-1.8V4.5z M30.8,5v3.6H33c0.7,0,1.3-0.2,1.7-0.5c0.4-0.3,0.6-0.8,0.6-1.4c0-0.3-0.1-0.5-0.2-0.7c-0.1-0.2-0.2-0.4-0.4-0.5
		s-0.4-0.3-0.7-0.3C33.6,5,33.3,5,33,5H30.8z"/>
	<path fill="#22313F" d="M37.6,9V3h0.3c0.1,0,0.1,0,0.1,0c0,0,0,0.1,0.1,0.1l0,1.3c0.2-0.5,0.4-0.9,0.8-1.1c0.3-0.3,0.7-0.4,1.2-0.4
		c0.2,0,0.3,0,0.5,0.1c0.2,0,0.3,0.1,0.4,0.2L41,3.6c0,0.1-0.1,0.1-0.1,0.1c0,0-0.1,0-0.1,0c0,0-0.1,0-0.2-0.1s-0.1,0-0.2-0.1
		c-0.1,0-0.2,0-0.3,0c-0.5,0-0.8,0.1-1.1,0.4c-0.3,0.3-0.5,0.7-0.7,1.2V9H37.6z"/>
	<path fill="#22313F" d="M44.6,3C45,3,45.3,3,45.6,3.1c0.3,0.1,0.5,0.3,0.7,0.5c0.2,0.2,0.4,0.5,0.5,0.8C46.9,4.8,47,5.1,47,5.6
		c0,0.1,0,0.1,0,0.2c0,0-0.1,0-0.1,0h-4.3v0.1c0,0.4,0.1,0.8,0.2,1.2c0.1,0.3,0.3,0.6,0.4,0.9c0.2,0.2,0.4,0.4,0.7,0.5
		c0.3,0.1,0.6,0.2,0.9,0.2c0.3,0,0.6,0,0.8-0.1c0.2-0.1,0.4-0.1,0.6-0.2c0.1-0.1,0.3-0.2,0.4-0.2S46.6,8,46.6,8c0.1,0,0.1,0,0.1,0.1
		l0.2,0.2c-0.1,0.1-0.2,0.2-0.4,0.3S46.2,8.8,46,8.9C45.8,8.9,45.6,9,45.3,9c-0.2,0-0.4,0.1-0.7,0.1c-0.4,0-0.8-0.1-1.1-0.2
		c-0.3-0.1-0.6-0.3-0.9-0.6c-0.2-0.3-0.4-0.6-0.6-1s-0.2-0.8-0.2-1.4c0-0.4,0.1-0.8,0.2-1.2s0.3-0.7,0.5-0.9
		c0.2-0.3,0.5-0.5,0.8-0.6C43.8,3,44.2,3,44.6,3z M44.6,3.4c-0.3,0-0.6,0-0.8,0.1c-0.2,0.1-0.5,0.2-0.6,0.4s-0.3,0.4-0.4,0.6
		s-0.2,0.5-0.2,0.8h3.9c0-0.3,0-0.6-0.1-0.9c-0.1-0.3-0.2-0.5-0.4-0.6c-0.2-0.2-0.4-0.3-0.6-0.4C45.2,3.4,44.9,3.4,44.6,3.4z"/>
	<path fill="#22313F" d="M48.5,9V3h0.3C48.9,3,49,3.1,49,3.2l0.1,0.9c0.3-0.3,0.6-0.6,1-0.8C50.4,3.1,50.8,3,51.2,3
		c0.3,0,0.6,0.1,0.9,0.2s0.5,0.3,0.6,0.5S53,4,53.1,4.3s0.1,0.6,0.1,0.9V9h-0.6V5.2c0-0.6-0.1-1-0.4-1.3c-0.3-0.3-0.6-0.5-1.2-0.5
		c-0.4,0-0.8,0.1-1.1,0.3c-0.3,0.2-0.6,0.5-0.9,0.8V9H48.5z"/>
	<path fill="#22313F" d="M55,9V3h0.3c0.1,0,0.2,0.1,0.2,0.2l0.1,0.9c0.3-0.3,0.6-0.6,1-0.8C56.9,3.1,57.3,3,57.7,3
		C58,3,58.3,3,58.6,3.1s0.5,0.3,0.6,0.5s0.3,0.4,0.4,0.7s0.1,0.6,0.1,0.9V9h-0.6V5.2c0-0.6-0.1-1-0.4-1.3c-0.3-0.3-0.6-0.5-1.2-0.5
		c-0.4,0-0.8,0.1-1.1,0.3c-0.3,0.2-0.6,0.5-0.9,0.8V9H55z"/>
	<path fill="#22313F" d="M65.3,9c-0.1,0-0.2-0.1-0.2-0.2L65,8.1c-0.2,0.2-0.3,0.3-0.5,0.4c-0.2,0.1-0.3,0.2-0.5,0.3
		C63.8,8.9,63.6,9,63.4,9c-0.2,0-0.4,0.1-0.7,0.1c-0.2,0-0.4,0-0.6-0.1s-0.4-0.2-0.5-0.3s-0.3-0.3-0.4-0.5c-0.1-0.2-0.1-0.4-0.1-0.7
		c0-0.3,0.1-0.5,0.2-0.7s0.4-0.4,0.7-0.6c0.3-0.2,0.7-0.3,1.2-0.4c0.5-0.1,1.1-0.2,1.7-0.2V5.1c0-0.6-0.1-1-0.4-1.3
		c-0.2-0.3-0.6-0.4-1.1-0.4c-0.3,0-0.5,0-0.7,0.1c-0.2,0.1-0.4,0.2-0.5,0.3C62.2,3.9,62.1,4,62,4.1c-0.1,0.1-0.2,0.1-0.2,0.1
		c-0.1,0-0.1,0-0.2-0.1l-0.1-0.2c0.3-0.3,0.6-0.5,1-0.7c0.3-0.2,0.7-0.2,1.2-0.2c0.3,0,0.6,0.1,0.8,0.2c0.2,0.1,0.4,0.2,0.6,0.4
		c0.2,0.2,0.3,0.4,0.4,0.7c0.1,0.3,0.1,0.6,0.1,0.9V9H65.3z M62.9,8.7c0.2,0,0.4,0,0.6-0.1c0.2,0,0.4-0.1,0.5-0.2s0.3-0.2,0.5-0.3
		s0.3-0.3,0.4-0.4V6.1c-0.6,0-1.1,0.1-1.5,0.1s-0.7,0.2-1,0.3C62.2,6.7,62,6.8,61.9,7s-0.2,0.4-0.2,0.6c0,0.2,0,0.4,0.1,0.5
		s0.2,0.3,0.3,0.4c0.1,0.1,0.2,0.2,0.4,0.2S62.8,8.7,62.9,8.7z"/>
	<path fill="#22313F" d="M67.3,9V3h0.3c0.1,0,0.2,0.1,0.2,0.2l0.1,0.9c0.3-0.3,0.6-0.6,1-0.8C69.2,3.1,69.6,3,70,3
		c0.3,0,0.6,0.1,0.9,0.2s0.5,0.3,0.6,0.5s0.3,0.4,0.4,0.7S72,4.9,72,5.2V9h-0.6V5.2c0-0.6-0.1-1-0.4-1.3c-0.3-0.3-0.6-0.5-1.2-0.5
		c-0.4,0-0.8,0.1-1.1,0.3c-0.3,0.2-0.6,0.5-0.9,0.8V9H67.3z"/>
</g>
</svg>
